<svg width="200" height="200" viewBox="0 0 200 200" fill="none" xmlns="http://www.w3.org/2000/svg">
<path fill-rule="evenodd" clip-rule="evenodd" d="M0 100C0 73.4783 10.5357 48.043 29.2893 29.2893C48.043 10.5357 73.4783 0 100 0C126.522 0 151.957 10.5357 170.711 29.2893C189.464 48.043 200 73.4783 200 100C200 126.522 189.464 151.957 170.711 170.711C151.957 189.464 126.522 200 100 200C73.4783 200 48.043 189.464 29.2893 170.711C10.5357 151.957 0 126.522 0 100ZM100 14.344C83.3975 14.3445 67.153 19.1701 53.2426 28.2335C39.3323 37.2969 28.3558 50.2076 21.6483 65.3949C14.9409 80.5822 12.7917 97.3914 15.4622 113.778C18.1327 130.164 25.5078 145.421 36.6903 157.693C43.4781 147.058 52.8376 138.307 63.9033 132.248C74.9691 126.188 87.3839 123.017 100 123.026C112.616 123.017 125.031 126.188 136.097 132.248C147.162 138.307 156.522 147.058 163.31 157.693C174.492 145.421 181.867 130.164 184.538 113.778C187.208 97.3914 185.059 80.5822 178.352 65.3949C171.644 50.2076 160.668 37.2969 146.757 28.2335C132.847 19.1701 116.603 14.3445 100 14.344ZM152.574 167.628C147.235 158.416 139.566 150.771 130.338 145.46C121.11 140.149 110.647 137.359 100 137.37C89.3527 137.359 78.89 140.149 69.6619 145.46C60.4338 150.771 52.7652 158.416 47.4256 167.628C62.4466 179.338 80.9541 185.684 100 185.656C119.81 185.656 138.049 178.922 152.574 167.628ZM64.5176 84.9766C64.5176 75.5661 68.2559 66.541 74.9101 59.8867C81.5644 53.2325 90.5895 49.4942 100 49.4942C109.411 49.4942 118.436 53.2325 125.09 59.8867C131.744 66.541 135.482 75.5661 135.482 84.9766C135.482 94.3871 131.744 103.412 125.09 110.066C118.436 116.721 109.411 120.459 100 120.459C90.5895 120.459 81.5644 116.721 74.9101 110.066C68.2559 103.412 64.5176 94.3871 64.5176 84.9766ZM100 63.8381C97.2241 63.8381 94.4753 64.3849 91.9107 65.4472C89.346 66.5095 87.0157 68.0666 85.0528 70.0294C83.09 71.9923 81.5329 74.3226 80.4706 76.8873C79.4083 79.4519 78.8615 82.2007 78.8615 84.9766C78.8615 87.7525 79.4083 90.5013 80.4706 93.0659C81.5329 95.6306 83.09 97.9609 85.0528 99.9237C87.0157 101.887 89.346 103.444 91.9107 104.506C94.4753 105.568 97.2241 106.115 100 106.115C105.606 106.115 110.983 103.888 114.947 99.9237C118.911 95.9595 121.138 90.5829 121.138 84.9766C121.138 79.3703 118.911 73.9937 114.947 70.0294C110.983 66.0652 105.606 63.8381 100 63.8381Z" fill="white"/>
</svg>
