<svg width="66" height="66" viewBox="0 0 66 66" fill="none" xmlns="http://www.w3.org/2000/svg">
<path d="M60.5 27.5C59.137 20.8228 55.3433 14.8895 49.8542 10.8504C44.3652 6.81136 37.572 4.9543 30.7916 5.63926C24.0112 6.32422 17.7266 9.50241 13.1563 14.5577C8.58604 19.6129 6.0556 26.1851 6.0556 33C6.0556 39.8149 8.58604 46.3871 13.1563 51.4423C17.7266 56.4976 24.0112 59.6758 30.7916 60.3607C37.572 61.0457 44.3652 59.1886 49.8542 55.1496C55.3433 51.1105 59.137 45.1772 60.5 38.5H44C42.7893 40.5971 40.9204 42.236 38.6832 43.1627C36.4461 44.0893 33.9657 44.2519 31.6267 43.6252C29.2877 42.9985 27.2209 41.6175 25.7468 39.6964C24.2727 37.7753 23.4737 35.4215 23.4737 33C23.4737 30.5785 24.2727 28.2247 25.7468 26.3036C27.2209 24.3825 29.2877 23.0015 31.6267 22.3748C33.9657 21.7481 36.4461 21.9107 38.6832 22.8373C40.9204 23.764 42.7893 25.4029 44 27.5H60.5Z" stroke="#0D99FF" stroke-width="2" stroke-linecap="round" stroke-linejoin="round"/>
</svg>
