<svg width="36" height="36" viewBox="0 0 36 36" fill="none" xmlns="http://www.w3.org/2000/svg">
<g opacity="0.9" clip-path="url(#clip0_38_68)">
<path d="M12.5408 1.18415C8.94387 2.43197 5.84186 4.80037 3.69043 7.94147C1.539 11.0826 0.451556 14.8308 0.587824 18.6356C0.724093 22.4404 2.07689 26.1013 4.44752 29.0804C6.81814 32.0596 10.0816 34.2 13.7586 35.1873C16.7397 35.9565 19.8629 35.9903 22.8599 35.2857C25.5749 34.6759 28.0849 33.3714 30.1443 31.5001C32.2876 29.4929 33.8434 26.9396 34.6443 24.1145C35.5148 21.0423 35.6697 17.8115 35.0971 14.6701H18.3571V21.6141H28.0518C27.858 22.7217 27.4428 23.7787 26.831 24.7221C26.2192 25.6654 25.4234 26.4756 24.4911 27.1042C23.3073 27.8872 21.9728 28.4141 20.5733 28.651C19.1697 28.912 17.7301 28.912 16.3265 28.651C14.9039 28.3569 13.5581 27.7697 12.3749 26.927C10.4741 25.5814 9.04679 23.6699 8.29677 21.4651C7.53406 19.219 7.53406 16.784 8.29677 14.5379C8.83065 12.9635 9.71324 11.53 10.8786 10.3445C12.2123 8.96281 13.9008 7.9752 15.7588 7.48999C17.6168 7.00477 19.5725 7.0407 21.4115 7.59384C22.848 8.03481 24.1616 8.80529 25.2477 9.84384C26.3408 8.75634 27.4321 7.66602 28.5215 6.5729C29.084 5.98509 29.6971 5.4254 30.2511 4.82352C28.5934 3.2808 26.6474 2.08037 24.5249 1.29102C20.6597 -0.112442 16.4305 -0.150159 12.5408 1.18415Z" fill="white"/>
<path d="M12.5411 1.18405C16.4304 -0.151164 20.6596 -0.11444 24.5251 1.28811C26.648 2.08282 28.5931 3.28903 30.2486 4.83749C29.6861 5.43936 29.0926 6.00186 28.5189 6.58686C27.4276 7.67624 26.3373 8.76186 25.2479 9.84374C24.1619 8.80519 22.8482 8.03471 21.4117 7.59374C19.5734 7.03867 17.6177 7.00066 15.7592 7.48389C13.9007 7.96712 12.2112 8.95291 10.8761 10.3331C9.71065 11.5187 8.82807 12.9522 8.29418 14.5266L2.46387 10.0125C4.55077 5.87407 8.1641 2.70849 12.5411 1.18405Z" fill="#E33629"/>
<path d="M0.916857 14.4843C1.23023 12.9312 1.75049 11.4272 2.46373 10.0125L8.29404 14.5378C7.53134 16.7838 7.53134 19.2189 8.29404 21.465C6.35154 22.965 4.40811 24.4725 2.46373 25.9875C0.678218 22.4333 0.133668 18.3839 0.916857 14.4843Z" fill="#F8BD00"/>
<path d="M18.3572 14.6672H35.0972C35.6698 17.8086 35.5149 21.0394 34.6444 24.1116C33.8435 26.9367 32.2877 29.4901 30.1444 31.4972C28.2628 30.0291 26.3728 28.5722 24.4913 27.1041C25.4241 26.4749 26.2203 25.6638 26.8321 24.7195C27.444 23.7752 27.8588 22.717 28.0519 21.6085H18.3572C18.3544 19.2966 18.3572 16.9819 18.3572 14.6672Z" fill="#587DBD"/>
<path d="M2.46094 25.9876C4.40531 24.4876 6.34875 22.9801 8.29125 21.4651C9.04277 23.6706 10.4721 25.5823 12.375 26.927C13.5619 27.7658 14.9106 28.3482 16.335 28.637C17.7386 28.898 19.1783 28.898 20.5819 28.637C21.9814 28.4001 23.3159 27.8732 24.4997 27.0901C26.3813 28.5582 28.2712 30.0151 30.1528 31.4832C28.0938 33.3556 25.5837 34.661 22.8684 35.2717C19.8715 35.9762 16.7482 35.9424 13.7672 35.1732C11.4095 34.5437 9.20721 33.4339 7.29844 31.9135C5.27811 30.3095 3.628 28.2881 2.46094 25.9876Z" fill="#319F43"/>
</g>
<defs>
<clipPath id="clip0_38_68">
<rect width="36" height="36" fill="white"/>
</clipPath>
</defs>
</svg>
