<svg width="81" height="80" viewBox="0 0 81 80" fill="none" xmlns="http://www.w3.org/2000/svg">
<path d="M34.1211 50.3333L51.295 40.3333L34.1211 30.3333V50.3333ZM72.3735 24.2333C72.8037 25.8 73.1015 27.9 73.3 30.5667C73.5317 33.2333 73.6309 35.5333 73.6309 37.5333L73.8295 40.3333C73.8295 47.6333 73.3 53 72.3735 56.4333C71.5462 59.4333 69.627 61.3667 66.6489 62.2C65.0936 62.6333 62.2479 62.9333 57.88 63.1333C53.5782 63.3667 49.6405 63.4667 46.0006 63.4667L40.7392 63.6667C26.8744 63.6667 18.2378 63.1333 14.8295 62.2C11.8514 61.3667 9.93215 59.4333 9.1049 56.4333C8.67472 54.8667 8.37691 52.7667 8.17837 50.1C7.94674 47.4333 7.84747 45.1333 7.84747 43.1333L7.64893 40.3333C7.64893 33.0333 8.17837 27.6667 9.1049 24.2333C9.93215 21.2333 11.8514 19.3 14.8295 18.4667C16.3848 18.0333 19.2305 17.7333 23.5984 17.5333C27.9002 17.3 31.8379 17.2 35.4778 17.2L40.7392 17C54.604 17 63.2406 17.5333 66.6489 18.4667C69.627 19.3 71.5462 21.2333 72.3735 24.2333Z" fill="#F24822"/>
</svg>
