<svg width="66" height="66" viewBox="0 0 66 66" fill="none" xmlns="http://www.w3.org/2000/svg">
<path d="M56.309 32.9643L58.7812 30.1262L57.706 29.3563L59.4247 27.8107L58.0993 26.829L59.818 25.5667L58.7098 24.7253L60.5 16.1727L57.7775 8.25M57.7775 8.25L40.2875 14.5943H25.7125L8.2225 8.25L5.5 16.1727L7.326 24.7253L6.182 25.5667L7.9365 26.8317L6.611 27.8107L8.32975 29.3535L7.25725 30.1235L9.72675 32.9643L5.96475 44.3218L9.44075 55.9268L21.659 52.6322L24.024 54.5243L28.864 57.75H37.1388L41.976 54.5243L44.341 52.6322L56.595 55.9268L60.1068 44.3218L56.309 32.9643" fill="#F5841F"/>
<path d="M57.7775 8.25L36.3138 23.7105L40.293 14.5943L57.7775 8.25ZM8.22253 8.25L29.5075 23.8508L25.7098 14.5943L8.22253 8.25ZM50.0748 44.1128L44.341 52.5965L56.595 55.891L60.1068 44.286L50.0748 44.1128ZM5.96753 44.2887L9.44078 55.8938L21.659 52.5965L15.9638 44.1128L5.96753 44.2887Z" fill="#E27625"/>
<path d="M21.0155 29.7385L17.611 34.7517L29.722 35.2797L29.3288 22.5885L21.0155 29.7385ZM45.0203 29.7385L36.564 22.4482L36.3165 35.2797L48.4248 34.7517L45.0203 29.7385ZM21.659 52.5965L29.0043 49.159L22.6628 44.3932L21.659 52.5965ZM37.0315 49.1617L44.341 52.5992L43.3373 44.3932L37.0315 49.1617Z" fill="#E27625"/>
<path d="M44.341 52.5964L37.0315 49.1589L37.6392 53.7872L37.5677 55.7507L44.341 52.5964ZM21.659 52.5964L28.468 55.7507L28.4322 53.7899L29.0042 49.1617L21.659 52.5964Z" fill="#D7C1B3"/>
<path d="M28.5725 41.3078L22.5198 39.5918L26.818 37.6613L28.5725 41.3078ZM37.4275 41.3078L39.215 37.6613L43.516 39.5918L37.4275 41.3078Z" fill="#2F343B"/>
<path d="M21.659 52.5965L22.7342 44.1127L15.9637 44.2887L21.659 52.5965ZM43.3015 44.1127L44.341 52.5965L50.0747 44.2887L43.3015 44.1127ZM48.4275 34.7517L36.3137 35.2797L37.4247 41.3077L39.2177 37.6612L43.516 39.5917L48.4275 34.7517ZM22.5197 39.5917L26.818 37.6612L28.5752 41.3077L29.722 35.2797L17.611 34.7517L22.5197 39.5917Z" fill="#CC6228"/>
<path d="M17.611 34.7517L22.6628 44.3932L22.5198 39.5917L17.611 34.7517ZM43.516 39.5917L43.3373 44.3932L48.4248 34.7517L43.516 39.5917ZM29.722 35.2797L28.5753 41.3077L30.008 48.4577L30.3298 39.0637L29.722 35.2797ZM36.3138 35.2797L35.706 39.0307L35.992 48.4605L37.4248 41.3105L36.3138 35.2797Z" fill="#E27625"/>
<path d="M37.4275 41.3078L35.992 48.4578L37.0315 49.1618L43.3373 44.3933L43.516 39.5918L37.4275 41.3078ZM22.5198 39.5918L22.6628 44.3933L29.0043 49.1618L30.008 48.4605L28.5753 41.3105L22.5198 39.5918Z" fill="#F5841F"/>
<path d="M37.5678 55.7507L37.6393 53.7899L37.0673 53.3334H28.93L28.4295 53.7899L28.4652 55.7507L21.6562 52.5964L24.0212 54.4884L28.864 57.7499H37.1388L41.976 54.4884L44.341 52.5964L37.5678 55.7507Z" fill="#C0AD9E"/>
<path d="M37.0315 49.1617L35.992 48.4604H30.008L29.0043 49.1617L28.4323 53.7899L28.9328 53.3334H37.0673L37.6393 53.7899L37.0315 49.1617Z" fill="#2F343B"/>
<path d="M58.7098 24.728L60.5 16.17L57.7775 8.25L37.0315 23.1825L45.0203 29.7385L56.309 32.9643L58.7812 30.1262L57.706 29.3563L59.4247 27.8465L58.0993 26.829L59.818 25.5667L58.7098 24.728ZM5.5 16.1727L7.326 24.7253L6.182 25.5667L7.90075 26.8647L6.57525 27.8465L8.294 29.3535L7.2215 30.1235L9.72675 32.9643L21.0155 29.7385L29.0042 23.1852L8.2225 8.25L5.5 16.1727Z" fill="#763E1A"/>
<path d="M56.309 32.9642L45.0202 29.7385L48.4247 34.7517L43.3372 44.3932L50.0747 44.2887H60.1067L56.309 32.9642ZM21.0155 29.7385L9.72672 32.9642L5.96472 44.2887H15.9637L22.6627 44.3932L17.611 34.7517L21.0155 29.7385ZM36.3137 35.2797L37.0287 23.1852L40.293 14.5942H25.7097L29.0042 23.1852L29.7192 35.2797L30.008 39.0637V48.4605H35.992L36.0277 39.0637L36.3137 35.2797Z" fill="#F5841F"/>
</svg>
