<svg width="66" height="66" viewBox="0 0 66 66" fill="none" xmlns="http://www.w3.org/2000/svg">
<path d="M15.8125 19.25C15.2655 19.25 14.7409 19.4673 14.3541 19.8541C13.9673 20.2409 13.75 20.7655 13.75 21.3125C13.75 21.8595 13.9673 22.3841 14.3541 22.7709C14.7409 23.1577 15.2655 23.375 15.8125 23.375H26.8125C27.3595 23.375 27.8841 23.1577 28.2709 22.7709C28.6577 22.3841 28.875 21.8595 28.875 21.3125C28.875 20.7655 28.6577 20.2409 28.2709 19.8541C27.8841 19.4673 27.3595 19.25 26.8125 19.25H15.8125Z" fill="#FFA629"/>
<path fill-rule="evenodd" clip-rule="evenodd" d="M58.267 22.011C58.0947 22.0018 57.9113 21.9981 57.717 22H50.0913C43.846 22 38.5 26.774 38.5 33C38.5 39.226 43.846 44 50.0913 44H57.717C57.9113 44.0018 58.0947 43.9981 58.267 43.989C60.8052 43.835 63.0493 41.9072 63.239 39.2122C63.25 39.0362 63.25 38.8465 63.25 38.6705V27.3295C63.25 27.1535 63.25 26.9637 63.239 26.7877C63.0493 24.0927 60.8052 22.1677 58.267 22.011ZM49.4203 35.9342C51.0263 35.9342 52.3297 34.6197 52.3297 33C52.3297 31.3775 51.0263 30.0657 49.4203 30.0657C47.8143 30.0657 46.5052 31.3802 46.5052 33C46.5052 34.6225 47.8115 35.9342 49.4203 35.9342Z" fill="#FFA629"/>
<path opacity="0.5" d="M58.135 22.0055C58.135 18.7577 58.014 15.2735 55.9405 12.7792C55.7372 12.5354 55.5234 12.3006 55.2997 12.0752C53.24 10.0182 50.6303 9.10525 47.4072 8.67075C44.2723 8.25 40.271 8.25 35.2165 8.25H29.4085C24.354 8.25 20.35 8.25 17.215 8.67075C13.992 9.10525 11.3823 10.0182 9.3225 12.0752C7.2655 14.135 6.3525 16.7448 5.918 19.9678C5.5 23.1028 5.5 27.104 5.5 32.1585V32.4665C5.5 37.521 5.5 41.525 5.92075 44.6572C6.35525 47.8803 7.26825 50.49 9.32525 52.5497C11.385 54.6067 13.9948 55.5197 17.2178 55.9543C20.3528 56.375 24.354 56.375 29.4085 56.375H35.2165C40.271 56.375 44.275 56.375 47.4072 55.9543C50.6303 55.5197 53.24 54.6067 55.2997 52.5497C55.8589 51.9851 56.3411 51.3801 56.7463 50.7347C57.9837 48.7547 58.1322 46.3293 58.1322 43.9972L57.7197 44H50.0913C43.846 44 38.5 39.226 38.5 33C38.5 26.774 43.846 22 50.0913 22H57.717C57.8618 22 58.003 22.0018 58.135 22.0055Z" fill="#FFA629"/>
</svg>
