<svg width="67" height="67" viewBox="0 0 67 67" fill="none" xmlns="http://www.w3.org/2000/svg">
<path fill-rule="evenodd" clip-rule="evenodd" d="M0 33.5C0 24.6152 3.52945 16.0944 9.81192 9.81192C16.0944 3.52945 24.6152 0 33.5 0C42.3848 0 50.9056 3.52945 57.1881 9.81192C63.4705 16.0944 67 24.6152 67 33.5C67 42.3848 63.4705 50.9056 57.1881 57.1881C50.9056 63.4705 42.3848 67 33.5 67C24.6152 67 16.0944 63.4705 9.81192 57.1881C3.52945 50.9056 0 42.3848 0 33.5ZM33.5 4.80522C27.9382 4.80542 22.4962 6.42197 17.8363 9.45822C13.1763 12.4945 9.49918 16.8195 7.25219 21.9073C5.00521 26.995 4.28523 32.6261 5.17985 38.1156C6.07447 43.605 8.54513 48.7161 12.2913 52.8271C14.5652 49.2646 17.7006 46.3328 21.4076 44.3029C25.1146 42.2731 29.2736 41.2105 33.5 41.2136C37.7264 41.2105 41.8854 42.2731 45.5924 44.3029C49.2994 46.3328 52.4348 49.2646 54.7087 52.8271C58.4549 48.7161 60.9255 43.605 61.8202 38.1156C62.7148 32.6261 61.9948 26.995 59.7478 21.9073C57.5008 16.8195 53.8237 12.4945 49.1637 9.45822C44.5038 6.42197 39.0618 4.80542 33.5 4.80522ZM51.1124 56.1554C49.3237 53.0695 46.7547 50.5084 43.6633 48.7292C40.5719 46.95 37.0668 46.0153 33.5 46.0189C29.9332 46.0153 26.4281 46.95 23.3367 48.7292C20.2453 50.5084 17.6763 53.0695 15.8876 56.1554C20.9196 60.0781 27.1196 62.2041 33.5 62.1948C40.1363 62.1948 46.2465 59.9389 51.1124 56.1554ZM21.6134 28.4672C21.6134 25.3146 22.8657 22.2912 25.0949 20.0621C27.3241 17.8329 30.3475 16.5806 33.5 16.5806C36.6525 16.5806 39.6759 17.8329 41.9051 20.0621C44.1343 22.2912 45.3866 25.3146 45.3866 28.4672C45.3866 31.6197 44.1343 34.6431 41.9051 36.8723C39.6759 39.1014 36.6525 40.3538 33.5 40.3538C30.3475 40.3538 27.3241 39.1014 25.0949 36.8723C22.8657 34.6431 21.6134 31.6197 21.6134 28.4672ZM33.5 21.3858C32.5701 21.3858 31.6492 21.5689 30.7901 21.9248C29.9309 22.2807 29.1503 22.8023 28.4927 23.4599C27.8351 24.1174 27.3135 24.8981 26.9577 25.7572C26.6018 26.6164 26.4186 27.5372 26.4186 28.4672C26.4186 29.3971 26.6018 30.3179 26.9577 31.1771C27.3135 32.0362 27.8351 32.8169 28.4927 33.4745C29.1503 34.132 29.9309 34.6536 30.7901 35.0095C31.6492 35.3654 32.5701 35.5485 33.5 35.5485C35.3781 35.5485 37.1793 34.8025 38.5073 33.4745C39.8353 32.1464 40.5814 30.3453 40.5814 28.4672C40.5814 26.5891 39.8353 24.7879 38.5073 23.4599C37.1793 22.1318 35.3781 21.3858 33.5 21.3858Z" fill="white"/>
</svg>
